<svg height="512" width="452" xmlns="http://www.w3.org/2000/svg"><path d="m321.7590027 65.0911484 27.7839355 27.6068344 41.3181458 3.0802841c1.8679504.1567078 4.1277161 1.5834427 4.4823303 4.1648178l56.0352478 379.0511475-151.456543 32.7654724zm-36.0011597 446.9088516-285.757843-53.5411377 38.992485-300.789856c1.884449-13.52948 2.3380623-13.9830933 16.6963654-18.4860229l46.3323822-14.3705902c9.9172821-42.0563889 41.5450668-124.8123932 107.7449112-124.8123932 8.6471405 0 18.6591034 4.6431279 26.741333 15.3314257 30.2951965-1.4114237 46.9716187 24.1270752 56.1259766 50.4643059l15.1674805-4.6819534zm-58.1407013-475.625988c-16.1438599 6.9275894-34.6091614 25.2899055-44.4604492 63.3092613l51.1612244-15.8427353c.1864776-22.3419533-2.6308747-37.26474-6.7007752-47.466526zm-105.1800384 82.1127891 40.4398193-12.5233536c9.6038818-50.2126923 32.3454132-75.3582916 53.5610962-85.3414764-2.7544708-1.8968544-5.6327515-2.8658791-8.4904327-2.8658791-47.548935.000002-74.2613678 62.4309426-85.5104828 100.7307091zm116.4703521 64.9380036s-13.2201691-7.6657104-39.9822235-7.6657104c-69.4533386 0-103.8603897 46.3901978-103.8603897 94.3267212 0 56.9548035 56.8269882 58.5011292 56.8269882 93.1639099 0 8.3791199-5.9256744 19.8467407-20.4900818 19.8467407-22.2920151 0-48.7076492-22.6796265-48.7076492-22.6796265l-13.4551697 44.4562378s25.6980057 31.2772522 75.9520035 31.2772522c41.8790741 0 72.9378357-31.532959 72.9378357-80.5003357 0-62.2412109-69.2678223-72.4223022-69.2678223-98.9946594 0-4.8699188 1.5504303-24.1971588 32.3452911-24.1971588 21.0054932 0 38.1430664 9.1461487 38.1430664 9.1461487zm12.7748566-104.9573212 24.7702942-7.6657104c-6.2760925-19.1746368-16.0283508-35.8339005-30.6711731-37.6729469 4.5010986 12.9676895 6.0969391 28.3947791 5.9008789 45.3386573z"/></svg>