<?xml version="1.0" standalone="no"?>
<svg id="bar-code" width="530px" height="142px" x="0px" y="0px" viewBox="0 0 530 142" xmlns="http://www.w3.org/2000/svg" version="1.1" style="transform: translate(0,0)"><rect x="0" y="0" width="530" height="142" style="fill:#ffffff;"></rect><g transform="translate(10, 10)" style="fill:#000000;"><rect x="0" y="0" width="4" height="100"></rect><rect x="6" y="0" width="2" height="100"></rect><rect x="12" y="0" width="2" height="100"></rect><rect x="22" y="0" width="2" height="100"></rect><rect x="26" y="0" width="6" height="100"></rect><rect x="34" y="0" width="4" height="100"></rect><rect x="44" y="0" width="2" height="100"></rect><rect x="54" y="0" width="4" height="100"></rect><rect x="60" y="0" width="2" height="100"></rect><rect x="66" y="0" width="2" height="100"></rect><rect x="76" y="0" width="2" height="100"></rect><rect x="80" y="0" width="4" height="100"></rect><rect x="88" y="0" width="2" height="100"></rect><rect x="94" y="0" width="2" height="100"></rect><rect x="100" y="0" width="8" height="100"></rect><rect x="110" y="0" width="2" height="100"></rect><rect x="118" y="0" width="8" height="100"></rect><rect x="128" y="0" width="2" height="100"></rect><rect x="132" y="0" width="4" height="100"></rect><rect x="138" y="0" width="4" height="100"></rect><rect x="146" y="0" width="4" height="100"></rect><rect x="154" y="0" width="2" height="100"></rect><rect x="162" y="0" width="2" height="100"></rect><rect x="170" y="0" width="4" height="100"></rect><rect x="176" y="0" width="2" height="100"></rect><rect x="180" y="0" width="4" height="100"></rect><rect x="188" y="0" width="2" height="100"></rect><rect x="198" y="0" width="4" height="100"></rect><rect x="210" y="0" width="2" height="100"></rect><rect x="214" y="0" width="2" height="100"></rect><rect x="220" y="0" width="2" height="100"></rect><rect x="226" y="0" width="8" height="100"></rect><rect x="236" y="0" width="2" height="100"></rect><rect x="242" y="0" width="2" height="100"></rect><rect x="246" y="0" width="4" height="100"></rect><rect x="254" y="0" width="2" height="100"></rect><rect x="264" y="0" width="2" height="100"></rect><rect x="270" y="0" width="2" height="100"></rect><rect x="276" y="0" width="8" height="100"></rect><rect x="286" y="0" width="4" height="100"></rect><rect x="292" y="0" width="4" height="100"></rect><rect x="300" y="0" width="4" height="100"></rect><rect x="308" y="0" width="2" height="100"></rect><rect x="316" y="0" width="2" height="100"></rect><rect x="320" y="0" width="4" height="100"></rect><rect x="330" y="0" width="2" height="100"></rect><rect x="336" y="0" width="2" height="100"></rect><rect x="340" y="0" width="4" height="100"></rect><rect x="352" y="0" width="2" height="100"></rect><rect x="358" y="0" width="2" height="100"></rect><rect x="364" y="0" width="8" height="100"></rect><rect x="374" y="0" width="2" height="100"></rect><rect x="384" y="0" width="2" height="100"></rect><rect x="388" y="0" width="4" height="100"></rect><rect x="396" y="0" width="2" height="100"></rect><rect x="404" y="0" width="8" height="100"></rect><rect x="414" y="0" width="2" height="100"></rect><rect x="418" y="0" width="2" height="100"></rect><rect x="428" y="0" width="2" height="100"></rect><rect x="434" y="0" width="4" height="100"></rect><rect x="440" y="0" width="2" height="100"></rect><rect x="444" y="0" width="4" height="100"></rect><rect x="452" y="0" width="2" height="100"></rect><rect x="462" y="0" width="4" height="100"></rect><rect x="470" y="0" width="2" height="100"></rect><rect x="478" y="0" width="2" height="100"></rect><rect x="484" y="0" width="4" height="100"></rect><rect x="494" y="0" width="6" height="100"></rect><rect x="502" y="0" width="2" height="100"></rect><rect x="506" y="0" width="4" height="100"></rect><text style="font: 20px monospace" text-anchor="middle" x="255" y="122">Micro Center Barcode</text></g></svg>